<?xml version="1.0" encoding="iso-8859-1"?>
<!-- Generator: Adobe Illustrator 19.0.0, SVG Export Plug-In . SVG Version: 6.00 Build 0)  -->
<svg version="1.1" id="Layer_1" xmlns="http://www.w3.org/2000/svg" xmlns:xlink="http://www.w3.org/1999/xlink" x="0px" y="0px"
	 viewBox="0 0 286.054 286.054" style="enable-background:new 0 0 286.054 286.054;" xml:space="preserve">
<g>
	<path style="fill:#2394BC;" d="M143.027,0C64.04,0,0,64.04,0,143.027c0,78.996,64.04,143.027,143.027,143.027
		s143.027-64.031,143.027-143.027C286.054,64.04,222.014,0,143.027,0z M143.027,259.236c-64.183,0-116.209-52.026-116.209-116.209
		S78.844,26.818,143.027,26.818s116.209,52.026,116.209,116.209S207.21,259.236,143.027,259.236z M175.065,155.122h-5.042v-52.607
		c0-15.59-8.394-21.937-18.933-21.937c-9.449,0-14.535,3.093-18.531,9.94l-40.7,69.565c-1.091,1.707-2.548,3.772-2.548,7.545
		c0,4.452,3.817,10.11,12.72,10.11h43.793V192.3c0,9.091,1.85,13.364,11.12,13.364s13.078-4.282,13.078-13.364v-14.562h5.042
		c7.089,0,12.72-4.452,12.72-11.317C187.785,159.573,182.154,155.122,175.065,155.122z M146.379,155.122h-24.896l24.529-47.816
		h0.367V155.122z"/>
</g>
<g>
</g>
<g>
</g>
<g>
</g>
<g>
</g>
<g>
</g>
<g>
</g>
<g>
</g>
<g>
</g>
<g>
</g>
<g>
</g>
<g>
</g>
<g>
</g>
<g>
</g>
<g>
</g>
<g>
</g>
</svg>
