<?xml version="1.0" encoding="iso-8859-1"?>
<!-- Generator: Adobe Illustrator 19.0.0, SVG Export Plug-In . SVG Version: 6.00 Build 0)  -->
<svg version="1.1" id="Layer_1" xmlns="http://www.w3.org/2000/svg" xmlns:xlink="http://www.w3.org/1999/xlink" x="0px" y="0px"
	 viewBox="0 0 286.054 286.054" style="enable-background:new 0 0 286.054 286.054;" xml:space="preserve">
<g>
	<path style="fill:#2394BC;" d="M143.027,0C64.04,0,0,64.04,0,143.027c0,78.996,64.04,143.027,143.027,143.027
		s143.027-64.031,143.027-143.027C286.054,64.04,222.014,0,143.027,0z M143.027,259.236c-64.183,0-116.209-52.026-116.209-116.209
		S78.844,26.818,143.027,26.818s116.209,52.026,116.209,116.209S207.21,259.236,143.027,259.236z M149.678,120.849
		c-4.613,0-9.395,0.867-13.811,1.716l2.762-18.325h34.63c3.316,0,12.89-1.037,12.89-12.971c0-6.222-4.979-10.888-13.445-10.888
		h-44.401c-8.832,0-12.712,2.941-14.365,16.43l-4.604,36.481c-0.188,1.895-0.554,3.629-0.554,5.873
		c0,2.941,3.683,8.126,10.861,8.126c9.395,0,11.049-5.703,21.74-5.703c11.424,0,17.691,7.08,17.691,17.458
		c0,10.897-6.633,22.643-19.523,22.643c-12.345,0-21.195-11.058-28.561-11.058c-6.812,0-12.515,5.364-12.515,11.755
		c0,15.214,27.443,23.17,40.521,23.17c31.859,0,48.817-19.023,48.817-47.896C187.812,137.44,171.972,120.849,149.678,120.849z"/>
</g>
<g>
</g>
<g>
</g>
<g>
</g>
<g>
</g>
<g>
</g>
<g>
</g>
<g>
</g>
<g>
</g>
<g>
</g>
<g>
</g>
<g>
</g>
<g>
</g>
<g>
</g>
<g>
</g>
<g>
</g>
</svg>
