<?xml version="1.0" encoding="iso-8859-1"?>
<!-- Generator: Adobe Illustrator 19.0.0, SVG Export Plug-In . SVG Version: 6.00 Build 0)  -->
<svg version="1.1" id="Layer_1" xmlns="http://www.w3.org/2000/svg" xmlns:xlink="http://www.w3.org/1999/xlink" x="0px" y="0px"
	 viewBox="0 0 286.054 286.054" style="enable-background:new 0 0 286.054 286.054;" xml:space="preserve">
<g>
	<path style="fill:#2394BC;" d="M143.027,0C64.04,0,0,64.04,0,143.027c0,78.996,64.04,143.027,143.027,143.027
		s143.027-64.031,143.027-143.027C286.054,64.04,222.014,0,143.027,0z M143.027,259.236c-64.183,0-116.209-52.026-116.209-116.209
		S78.844,26.818,143.027,26.818s116.209,52.026,116.209,116.209S207.21,259.236,143.027,259.236z M150.5,125.417
		c-3.915,0-8.01,0.679-11.228,2.047l-0.349-0.349c5.873-7.983,17.458-18.844,24.583-27.166c2.136-2.548,3.737-4.586,3.737-6.955
		c0-6.123-7.652-12.408-12.64-12.408c-1.43,0-3.388,0-5.346,1.198c-2.145,1.35-4.282,2.718-5.712,4.076
		c-17.995,15.956-45.25,51.955-45.25,77.61c0,22.58,17.288,42.112,44.723,42.112c26.371,0,44.723-20.042,44.723-42.112
		C187.741,143.411,171.892,125.417,150.5,125.417z M143.018,181.117c-10.691,0-16.931-8.153-16.931-17.664
		c0-10.021,6.776-17.673,16.931-17.673c11.228,0,16.931,8.671,16.931,17.673C159.949,173.304,153.173,181.117,143.018,181.117z"/>
</g>
<g>
</g>
<g>
</g>
<g>
</g>
<g>
</g>
<g>
</g>
<g>
</g>
<g>
</g>
<g>
</g>
<g>
</g>
<g>
</g>
<g>
</g>
<g>
</g>
<g>
</g>
<g>
</g>
<g>
</g>
</svg>
