<?xml version="1.0" encoding="iso-8859-1"?>
<!-- Generator: Adobe Illustrator 19.0.0, SVG Export Plug-In . SVG Version: 6.00 Build 0)  -->
<svg version="1.1" id="Layer_1" xmlns="http://www.w3.org/2000/svg" xmlns:xlink="http://www.w3.org/1999/xlink" x="0px" y="0px"
	 viewBox="0 0 286.054 286.054" style="enable-background:new 0 0 286.054 286.054;" xml:space="preserve">
<g>
	<path style="fill:#2394BC;" d="M143.027,0C64.04,0,0,64.04,0,143.027c0,78.996,64.04,143.027,143.027,143.027
		c78.996,0,143.027-64.031,143.027-143.027C286.054,64.04,222.022,0,143.027,0z M143.027,259.236
		c-64.183,0-116.209-52.026-116.209-116.209S78.844,26.818,143.027,26.818s116.209,52.026,116.209,116.209
		S207.21,259.236,143.027,259.236z M168.289,137.467c8.85-5.265,13.909-14.768,13.909-24.279c0-20.042-18.236-32.61-39.18-32.61
		c-21.481,0-38.993,12.747-38.993,32.61c0,10.691,5.238,18.504,13.722,24.279c-11.371,5.775-19.318,15.796-19.318,29.383
		c0,22.759,19.675,38.716,44.589,38.716c24.189,0,44.589-15.107,44.589-38.716C187.607,153.781,180.571,143.25,168.289,137.467z
		 M143.018,102.997c8.483,0,13.185,5.605,13.185,12.908c0,7.634-4.881,12.899-13.185,12.899c-8.305,0-12.998-5.265-12.998-12.899
		C130.02,108.602,134.535,102.997,143.018,102.997z M143.018,182.127c-11.013,0-16.43-8.322-16.43-16.976
		c0-9.502,5.953-16.976,16.43-16.976c9.922,0,16.43,6.284,16.43,16.976C159.448,173.813,153.307,182.127,143.018,182.127z"/>
</g>
<g>
</g>
<g>
</g>
<g>
</g>
<g>
</g>
<g>
</g>
<g>
</g>
<g>
</g>
<g>
</g>
<g>
</g>
<g>
</g>
<g>
</g>
<g>
</g>
<g>
</g>
<g>
</g>
<g>
</g>
</svg>
