<?xml version="1.0" encoding="iso-8859-1"?>
<!-- Generator: Adobe Illustrator 19.0.0, SVG Export Plug-In . SVG Version: 6.00 Build 0)  -->
<svg version="1.1" id="Layer_1" xmlns="http://www.w3.org/2000/svg" xmlns:xlink="http://www.w3.org/1999/xlink" x="0px" y="0px"
	 viewBox="0 0 286.054 286.054" style="enable-background:new 0 0 286.054 286.054;" xml:space="preserve">
<g>
	<path style="fill:#2394BC;" d="M143.027,0C64.031,0,0,64.04,0,143.027c0,78.996,64.031,143.027,143.027,143.027
		s143.027-64.031,143.027-143.027C286.054,64.04,222.022,0,143.027,0z M143.027,259.236c-64.183,0-116.209-52.026-116.209-116.209
		S78.844,26.818,143.027,26.818s116.209,52.026,116.209,116.209S207.21,259.236,143.027,259.236z M143.018,80.578
		c-26.371,0-44.723,20.042-44.723,42.121c0,20.033,15.858,38.036,37.241,38.036c3.915,0,8.01-0.679,11.228-2.038l0.349,0.34
		c-5.873,7.983-17.458,18.844-24.583,27.166c-2.136,2.548-3.746,4.595-3.746,6.964c0,6.114,7.661,12.399,12.649,12.399
		c1.43,0,3.388,0,5.355-1.189c2.136-1.359,4.273-2.726,5.703-4.076c17.995-15.965,45.25-51.963,45.25-77.61
		C187.741,100.119,170.452,80.578,143.018,80.578z M143.018,140.363c-11.228,0-16.931-8.662-16.931-17.664
		c0-9.86,6.776-17.664,16.931-17.664c10.691,0,16.931,8.153,16.931,17.664C159.949,132.711,153.173,140.363,143.018,140.363z"/>
</g>
<g>
</g>
<g>
</g>
<g>
</g>
<g>
</g>
<g>
</g>
<g>
</g>
<g>
</g>
<g>
</g>
<g>
</g>
<g>
</g>
<g>
</g>
<g>
</g>
<g>
</g>
<g>
</g>
<g>
</g>
</svg>
